<?xml version="1.0" encoding="utf-8" ?>
<svg xmlns="http://www.w3.org/2000/svg" xmlns:cc="http://creativecommons.org/ns" xmlns:dc="http://purl.org/dc/elements/1.1/" xmlns:ev="http://www.w3.org/2001/xml-events" xmlns:inkscape="http://www.inkscape.org/namespaces/inkscape" xmlns:rdf="http://www.w3.org/1999/02/22-rdf-syntax-ns" xmlns:sodipodi="http://sodipodi.sourceforge.net/DTD/sodipodi-0.dtd" xmlns:xlink="http://www.w3.org/1999/xlink" baseProfile="tiny" height="29.7cm" version="1.2" viewBox="0 0 793.7007874015749 1122.5196850393702" width="21.0cm">
  <metadata>
    <rdf:RDF>
      <cc:Work>
        <dc:format>image/svg+xml</dc:format>
        <dc:source>Vsketch with params {'__seed__': 0, 'size': 6, 'paper': 'a4', 'num_x': 30, 'num_y': 45, 'probability': 0.6}</dc:source>
        <dc:date>2023-01-19T21:32:15.006600</dc:date>
      </cc:Work>
    </rdf:RDF>
  </metadata>
  <defs/>
  <g fill="none" id="layer1" inkscape:groupmode="layer" inkscape:label="1" stroke="#0000ff" style="display:inline">
    <polyline points="79.3701,51.0236 56.6929,73.7008 124.7244,141.7323 147.4016,119.0551"/>
    <polyline points="147.4016,141.7323 124.7244,164.4094 79.3701,119.0551 56.6929,141.7323 79.3701,164.4094 56.6929,187.0866"/>
    <line x1="79.3701" x2="102.0472" y1="209.7638" y2="187.0866"/>
    <polyline points="102.0472,164.4094 56.6929,209.7638 79.3701,232.4409 56.6929,255.1181"/>
    <line x1="56.6929" x2="124.7244" y1="277.7953" y2="209.7638"/>
    <line x1="147.4016" x2="283.4646" y1="209.7638" y2="345.8268"/>
    <line x1="283.4646" x2="260.7874" y1="323.1496" y2="300.4724"/>
    <polyline points="238.1102,300.4724 260.7874,277.7953 215.4331,232.4409 170.0787,277.7953"/>
    <line x1="170.0787" x2="192.7559" y1="300.4724" y2="323.1496"/>
    <polyline points="192.7559,300.4724 215.4331,323.1496 192.7559,345.8268 170.0787,323.1496 147.4016,345.8268"/>
    <line x1="147.4016" x2="124.7244" y1="323.1496" y2="300.4724"/>
    <polyline points="124.7244,323.1496 102.0472,300.4724 124.7244,277.7953 147.4016,300.4724 170.0787,277.7953 124.7244,232.4409 147.4016,209.7638 79.3701,141.7323"/>
    <polyline points="102.0472,119.0551 124.7244,96.378 102.0472,73.7008 56.6929,119.0551"/>
    <polyline points="79.3701,73.7008 102.0472,51.0236 124.7244,73.7008"/>
    <line x1="147.4016" x2="124.7244" y1="73.7008" y2="96.378"/>
    <polyline points="124.7244,119.0551 147.4016,96.378 170.0787,119.0551 147.4016,141.7323 170.0787,164.4094 147.4016,187.0866 170.0787,209.7638 192.7559,187.0866 306.1417,300.4724"/>
    <polyline points="306.1417,345.8268 283.4646,368.5039 306.1417,391.1811 260.7874,436.5354 283.4646,459.2126 260.7874,481.8898"/>
    <line x1="238.1102" x2="215.4331" y1="481.8898" y2="504.5669"/>
    <line x1="215.4331" x2="192.7559" y1="527.2441" y2="549.9213"/>
    <polyline points="215.4331,549.9213 192.7559,572.5984 215.4331,595.2756 192.7559,617.9528"/>
    <polyline points="215.4331,617.9528 238.1102,595.2756 215.4331,572.5984 238.1102,549.9213 102.0472,413.8583 170.0787,345.8268 238.1102,413.8583 260.7874,391.1811 306.1417,436.5354 283.4646,459.2126 306.1417,481.8898 283.4646,504.5669 215.4331,436.5354 192.7559,459.2126 215.4331,481.8898"/>
    <polyline points="215.4331,459.2126 283.4646,527.2441 306.1417,504.5669"/>
    <line x1="306.1417" x2="328.8189" y1="527.2441" y2="549.9213"/>
    <polyline points="328.8189,527.2441 374.1732,572.5984 351.4961,595.2756 419.5276,663.3071"/>
    <polyline points="419.5276,640.6299 442.2047,663.3071 419.5276,685.9843 442.2047,708.6614 464.8819,685.9843 442.2047,663.3071 464.8819,640.6299"/>
    <polyline points="464.8819,617.9528 442.2047,640.6299 419.5276,617.9528 374.1732,663.3071"/>
    <polyline points="351.4961,663.3071 396.8504,708.6614 419.5276,685.9843 396.8504,663.3071"/>
    <polyline points="396.8504,685.9843 306.1417,595.2756 283.4646,617.9528"/>
    <polyline points="260.7874,640.6299 238.1102,617.9528 215.4331,640.6299 124.7244,549.9213"/>
    <polyline points="102.0472,549.9213 79.3701,572.5984 124.7244,617.9528 102.0472,640.6299 147.4016,685.9843 124.7244,708.6614 147.4016,731.3386 124.7244,754.0157 102.0472,731.3386"/>
    <polyline points="102.0472,754.0157 79.3701,776.6929 102.0472,799.3701"/>
    <line x1="79.3701" x2="56.6929" y1="799.3701" y2="822.0472"/>
    <line x1="56.6929" x2="79.3701" y1="799.3701" y2="776.6929"/>
    <line x1="79.3701" x2="56.6929" y1="754.0157" y2="776.6929"/>
    <polyline points="56.6929,754.0157 79.3701,731.3386 56.6929,708.6614 102.0472,663.3071 56.6929,617.9528"/>
    <line x1="56.6929" x2="79.3701" y1="640.6299" y2="663.3071"/>
    <line x1="56.6929" x2="79.3701" y1="663.3071" y2="685.9843"/>
    <polyline points="79.3701,708.6614 102.0472,685.9843 124.7244,708.6614"/>
    <line x1="124.7244" x2="102.0472" y1="685.9843" y2="663.3071"/>
    <line x1="102.0472" x2="56.6929" y1="640.6299" y2="595.2756"/>
    <polyline points="56.6929,549.9213 79.3701,527.2441 56.6929,504.5669 79.3701,481.8898"/>
    <line x1="79.3701" x2="124.7244" y1="459.2126" y2="504.5669"/>
    <polyline points="147.4016,504.5669 192.7559,549.9213 170.0787,572.5984"/>
    <polyline points="170.0787,595.2756 147.4016,617.9528 124.7244,595.2756"/>
    <polyline points="147.4016,595.2756 124.7244,572.5984 102.0472,595.2756"/>
    <polyline points="102.0472,572.5984 124.7244,549.9213 102.0472,527.2441 56.6929,572.5984 102.0472,617.9528"/>
    <polyline points="124.7244,617.9528 170.0787,663.3071 147.4016,685.9843 170.0787,708.6614"/>
    <line x1="170.0787" x2="238.1102" y1="685.9843" y2="754.0157"/>
    <line x1="238.1102" x2="192.7559" y1="776.6929" y2="731.3386"/>
    <line x1="170.0787" x2="192.7559" y1="731.3386" y2="708.6614"/>
    <polyline points="192.7559,685.9843 238.1102,640.6299 260.7874,663.3071"/>
    <line x1="283.4646" x2="306.1417" y1="663.3071" y2="685.9843"/>
    <polyline points="306.1417,708.6614 374.1732,776.6929 328.8189,822.0472"/>
    <line x1="306.1417" x2="328.8189" y1="822.0472" y2="844.7244"/>
    <line x1="306.1417" x2="283.4646" y1="844.7244" y2="867.4016"/>
    <polyline points="283.4646,844.7244 328.8189,799.3701 306.1417,776.6929"/>
    <line x1="306.1417" x2="351.4961" y1="731.3386" y2="776.6929"/>
    <polyline points="351.4961,754.0157 374.1732,731.3386 351.4961,708.6614 328.8189,731.3386"/>
    <polyline points="328.8189,685.9843 283.4646,640.6299 306.1417,617.9528 328.8189,640.6299"/>
    <line x1="328.8189" x2="351.4961" y1="663.3071" y2="640.6299"/>
    <polyline points="374.1732,640.6299 306.1417,572.5984 283.4646,595.2756 260.7874,572.5984 283.4646,549.9213 238.1102,504.5669"/>
    <line x1="192.7559" x2="147.4016" y1="527.2441" y2="481.8898"/>
    <line x1="124.7244" x2="56.6929" y1="481.8898" y2="413.8583"/>
    <line x1="79.3701" x2="56.6929" y1="413.8583" y2="391.1811"/>
    <polyline points="79.3701,436.5354 56.6929,459.2126 192.7559,595.2756"/>
    <line x1="170.0787" x2="192.7559" y1="640.6299" y2="663.3071"/>
    <polyline points="170.0787,663.3071 238.1102,731.3386 260.7874,708.6614 170.0787,617.9528 147.4016,640.6299"/>
    <line x1="147.4016" x2="124.7244" y1="663.3071" y2="640.6299"/>
    <line x1="147.4016" x2="238.1102" y1="708.6614" y2="799.3701"/>
    <polyline points="260.7874,799.3701 215.4331,844.7244 192.7559,822.0472"/>
    <polyline points="170.0787,822.0472 147.4016,799.3701 170.0787,776.6929 215.4331,822.0472 260.7874,776.6929 238.1102,754.0157 260.7874,731.3386 283.4646,754.0157 306.1417,731.3386 283.4646,708.6614 306.1417,685.9843 328.8189,708.6614 351.4961,685.9843 306.1417,640.6299"/>
    <polyline points="283.4646,685.9843 260.7874,708.6614 283.4646,731.3386"/>
    <polyline points="260.7874,754.0157 306.1417,799.3701 260.7874,844.7244 306.1417,890.0787"/>
    <polyline points="306.1417,912.7559 238.1102,844.7244 260.7874,822.0472"/>
    <polyline points="283.4646,822.0472 260.7874,799.3701 306.1417,754.0157 351.4961,799.3701"/>
    <line x1="374.1732" x2="419.5276" y1="799.3701" y2="844.7244"/>
    <polyline points="442.2047,844.7244 419.5276,867.4016 464.8819,912.7559 487.5591,890.0787 532.9134,935.4331 510.2362,958.1102 487.5591,935.4331 464.8819,958.1102 555.5906,1048.8189 532.9134,1071.4961"/>
    <polyline points="510.2362,1071.4961 532.9134,1048.8189 464.8819,980.7874"/>
    <line x1="464.8819" x2="419.5276" y1="958.1102" y2="1003.4646"/>
    <polyline points="442.2047,1026.1417 419.5276,1048.8189 442.2047,1071.4961"/>
    <polyline points="419.5276,1071.4961 396.8504,1048.8189 374.1732,1071.4961 283.4646,980.7874 306.1417,958.1102"/>
    <polyline points="306.1417,935.4331 328.8189,958.1102 306.1417,980.7874 351.4961,1026.1417"/>
    <polyline points="374.1732,1026.1417 396.8504,1048.8189 442.2047,1003.4646 487.5591,1048.8189"/>
    <polyline points="464.8819,1048.8189 487.5591,1071.4961 510.2362,1048.8189 374.1732,912.7559"/>
    <line x1="351.4961" x2="374.1732" y1="912.7559" y2="890.0787"/>
    <polyline points="374.1732,867.4016 396.8504,844.7244 374.1732,822.0472 351.4961,844.7244 419.5276,912.7559"/>
    <polyline points="442.2047,912.7559 419.5276,935.4331 351.4961,867.4016"/>
    <polyline points="351.4961,844.7244 328.8189,867.4016 351.4961,890.0787 328.8189,912.7559"/>
    <line x1="374.1732" x2="351.4961" y1="958.1102" y2="980.7874"/>
    <polyline points="328.8189,980.7874 374.1732,1026.1417 351.4961,1048.8189"/>
    <line x1="328.8189" x2="306.1417" y1="1048.8189" y2="1026.1417"/>
    <line x1="283.4646" x2="238.1102" y1="1026.1417" y2="980.7874"/>
    <line x1="260.7874" x2="215.4331" y1="980.7874" y2="935.4331"/>
    <polyline points="192.7559,935.4331 215.4331,912.7559 260.7874,958.1102 283.4646,935.4331 260.7874,912.7559"/>
    <polyline points="260.7874,935.4331 215.4331,890.0787 192.7559,912.7559"/>
    <polyline points="192.7559,890.0787 170.0787,867.4016 147.4016,890.0787"/>
    <polyline points="147.4016,867.4016 170.0787,844.7244 124.7244,799.3701 79.3701,844.7244"/>
    <polyline points="102.0472,844.7244 124.7244,822.0472 147.4016,844.7244 124.7244,867.4016"/>
    <line x1="102.0472" x2="124.7244" y1="890.0787" y2="912.7559"/>
    <line x1="102.0472" x2="56.6929" y1="912.7559" y2="958.1102"/>
    <line x1="79.3701" x2="56.6929" y1="958.1102" y2="980.7874"/>
    <polyline points="79.3701,980.7874 56.6929,1003.4646 79.3701,1026.1417 56.6929,1048.8189"/>
    <polyline points="56.6929,1071.4961 79.3701,1048.8189 102.0472,1071.4961 124.7244,1048.8189"/>
    <polyline points="102.0472,1048.8189 79.3701,1026.1417 124.7244,980.7874 102.0472,958.1102 147.4016,912.7559 102.0472,867.4016 79.3701,890.0787"/>
    <line x1="56.6929" x2="79.3701" y1="890.0787" y2="912.7559"/>
    <polyline points="56.6929,912.7559 102.0472,958.1102 79.3701,980.7874 102.0472,1003.4646"/>
    <line x1="147.4016" x2="170.0787" y1="1003.4646" y2="1026.1417"/>
    <polyline points="170.0787,1003.4646 192.7559,1026.1417 170.0787,1048.8189 192.7559,1071.4961 215.4331,1048.8189 238.1102,1071.4961"/>
    <polyline points="238.1102,1048.8189 260.7874,1026.1417 283.4646,1048.8189 260.7874,1071.4961 215.4331,1026.1417 238.1102,1003.4646 260.7874,1026.1417"/>
    <polyline points="215.4331,1003.4646 238.1102,980.7874 170.0787,912.7559 215.4331,867.4016 192.7559,844.7244"/>
    <polyline points="192.7559,867.4016 170.0787,844.7244 192.7559,822.0472 170.0787,799.3701"/>
    <polyline points="147.4016,799.3701 124.7244,776.6929 147.4016,754.0157 170.0787,776.6929"/>
    <line x1="147.4016" x2="215.4331" y1="731.3386" y2="799.3701"/>
    <polyline points="238.1102,844.7244 215.4331,867.4016 238.1102,890.0787"/>
    <polyline points="238.1102,867.4016 306.1417,935.4331 260.7874,980.7874 306.1417,1026.1417 283.4646,1048.8189 306.1417,1071.4961 328.8189,1048.8189 351.4961,1071.4961"/>
    <polyline points="374.1732,1003.4646 396.8504,980.7874 419.5276,1003.4646 396.8504,1026.1417 328.8189,958.1102 351.4961,935.4331 396.8504,980.7874 442.2047,935.4331"/>
    <polyline points="442.2047,958.1102 464.8819,935.4331 396.8504,867.4016 442.2047,822.0472 396.8504,776.6929"/>
    <polyline points="396.8504,754.0157 419.5276,776.6929 464.8819,731.3386 487.5591,754.0157"/>
    <polyline points="487.5591,776.6929 532.9134,731.3386 510.2362,708.6614 532.9134,685.9843"/>
    <polyline points="532.9134,708.6614 600.9449,776.6929 623.622,754.0157 600.9449,731.3386 555.5906,776.6929 532.9134,754.0157"/>
    <line x1="532.9134" x2="510.2362" y1="776.6929" y2="799.3701"/>
    <polyline points="510.2362,822.0472 532.9134,799.3701 600.9449,867.4016 578.2677,890.0787 600.9449,912.7559 578.2677,935.4331 555.5906,912.7559"/>
    <polyline points="578.2677,912.7559 555.5906,890.0787 532.9134,912.7559"/>
    <line x1="532.9134" x2="578.2677" y1="935.4331" y2="980.7874"/>
    <polyline points="555.5906,980.7874 578.2677,1003.4646 555.5906,1026.1417 532.9134,1003.4646"/>
    <line x1="532.9134" x2="555.5906" y1="980.7874" y2="1003.4646"/>
    <line x1="555.5906" x2="510.2362" y1="958.1102" y2="1003.4646"/>
    <polyline points="464.8819,1026.1417 442.2047,1048.8189 464.8819,1071.4961"/>
    <polyline points="578.2677,1071.4961 555.5906,1048.8189 578.2677,1026.1417 623.622,1071.4961"/>
    <polyline points="646.2992,1071.4961 578.2677,1003.4646 600.9449,980.7874 510.2362,890.0787 555.5906,844.7244 532.9134,822.0472 487.5591,867.4016 464.8819,844.7244"/>
    <polyline points="464.8819,867.4016 487.5591,890.0787 532.9134,844.7244"/>
    <line x1="555.5906" x2="578.2677" y1="844.7244" y2="867.4016"/>
    <polyline points="578.2677,890.0787 555.5906,867.4016 532.9134,890.0787"/>
    <polyline points="510.2362,935.4331 487.5591,912.7559 464.8819,935.4331"/>
    <polyline points="487.5591,958.1102 510.2362,980.7874 532.9134,958.1102"/>
    <polyline points="578.2677,958.1102 600.9449,935.4331 646.2992,980.7874"/>
    <line x1="668.9764" x2="646.2992" y1="980.7874" y2="1003.4646"/>
    <polyline points="668.9764,1003.4646 646.2992,1026.1417 691.6535,1071.4961 714.3307,1048.8189"/>
    <polyline points="691.6535,1048.8189 714.3307,1026.1417 691.6535,1003.4646"/>
    <line x1="691.6535" x2="668.9764" y1="1026.1417" y2="1048.8189"/>
    <line x1="646.2992" x2="668.9764" y1="1048.8189" y2="1071.4961"/>
    <polyline points="668.9764,1026.1417 691.6535,1003.4646 600.9449,912.7559 668.9764,844.7244"/>
    <line x1="646.2992" x2="668.9764" y1="844.7244" y2="822.0472"/>
    <line x1="691.6535" x2="714.3307" y1="822.0472" y2="844.7244"/>
    <polyline points="737.0079,844.7244 714.3307,867.4016 737.0079,890.0787"/>
    <polyline points="737.0079,912.7559 691.6535,867.4016 668.9764,890.0787 623.622,844.7244 668.9764,799.3701 691.6535,822.0472 668.9764,844.7244 691.6535,867.4016 737.0079,822.0472 714.3307,799.3701"/>
    <polyline points="737.0079,799.3701 714.3307,776.6929 691.6535,799.3701"/>
    <line x1="714.3307" x2="668.9764" y1="822.0472" y2="776.6929"/>
    <polyline points="646.2992,776.6929 623.622,754.0157 646.2992,731.3386 623.622,708.6614 668.9764,663.3071 646.2992,640.6299 623.622,663.3071 464.8819,504.5669 487.5591,481.8898 464.8819,459.2126 487.5591,436.5354 464.8819,413.8583"/>
    <line x1="487.5591" x2="510.2362" y1="413.8583" y2="391.1811"/>
    <line x1="532.9134" x2="555.5906" y1="391.1811" y2="368.5039"/>
    <line x1="555.5906" x2="578.2677" y1="391.1811" y2="413.8583"/>
    <polyline points="578.2677,391.1811 600.9449,413.8583 578.2677,436.5354 623.622,481.8898 600.9449,504.5669"/>
    <polyline points="578.2677,504.5669 623.622,549.9213 578.2677,595.2756 623.622,640.6299"/>
    <polyline points="646.2992,640.6299 600.9449,595.2756 623.622,572.5984"/>
    <line x1="600.9449" x2="578.2677" y1="572.5984" y2="549.9213"/>
    <line x1="600.9449" x2="532.9134" y1="549.9213" y2="481.8898"/>
    <polyline points="555.5906,481.8898 532.9134,459.2126 510.2362,481.8898 555.5906,527.2441"/>
    <line x1="555.5906" x2="578.2677" y1="504.5669" y2="481.8898"/>
    <polyline points="600.9449,481.8898 532.9134,413.8583 578.2677,368.5039 555.5906,345.8268 532.9134,368.5039 510.2362,345.8268 532.9134,323.1496 510.2362,300.4724"/>
    <polyline points="532.9134,300.4724 578.2677,255.1181 555.5906,232.4409 510.2362,277.7953 555.5906,323.1496 578.2677,300.4724 668.9764,391.1811 646.2992,413.8583"/>
    <polyline points="668.9764,413.8583 714.3307,459.2126 737.0079,436.5354"/>
    <polyline points="737.0079,459.2126 714.3307,481.8898 668.9764,436.5354 623.622,481.8898"/>
    <polyline points="623.622,504.5669 668.9764,459.2126 737.0079,527.2441 714.3307,549.9213 737.0079,572.5984"/>
    <polyline points="691.6535,549.9213 646.2992,504.5669 623.622,527.2441 532.9134,436.5354 510.2362,413.8583 532.9134,391.1811 510.2362,368.5039"/>
    <polyline points="532.9134,323.1496 555.5906,345.8268 578.2677,323.1496 600.9449,345.8268 578.2677,368.5039 623.622,413.8583 600.9449,436.5354"/>
    <line x1="578.2677" x2="555.5906" y1="436.5354" y2="413.8583"/>
    <polyline points="532.9134,436.5354 510.2362,459.2126 487.5591,436.5354"/>
    <polyline points="487.5591,459.2126 510.2362,481.8898 487.5591,504.5669"/>
    <polyline points="487.5591,527.2441 510.2362,504.5669 532.9134,527.2441 510.2362,549.9213"/>
    <line x1="510.2362" x2="487.5591" y1="572.5984" y2="549.9213"/>
    <line x1="487.5591" x2="510.2362" y1="572.5984" y2="595.2756"/>
    <polyline points="532.9134,595.2756 555.5906,617.9528 532.9134,640.6299 442.2047,549.9213 464.8819,527.2441 419.5276,481.8898 442.2047,459.2126"/>
    <polyline points="442.2047,436.5354 419.5276,459.2126 396.8504,436.5354 419.5276,413.8583 396.8504,391.1811 374.1732,413.8583 351.4961,391.1811 374.1732,368.5039 328.8189,323.1496 351.4961,300.4724"/>
    <polyline points="351.4961,323.1496 464.8819,436.5354 442.2047,459.2126 464.8819,481.8898"/>
    <line x1="442.2047" x2="464.8819" y1="481.8898" y2="504.5669"/>
    <polyline points="464.8819,527.2441 487.5591,549.9213 442.2047,595.2756"/>
    <line x1="442.2047" x2="419.5276" y1="572.5984" y2="549.9213"/>
    <line x1="442.2047" x2="419.5276" y1="549.9213" y2="527.2441"/>
    <line x1="419.5276" x2="442.2047" y1="504.5669" y2="527.2441"/>
    <polyline points="396.8504,504.5669 419.5276,527.2441 396.8504,549.9213"/>
    <polyline points="396.8504,572.5984 419.5276,595.2756 396.8504,617.9528"/>
    <line x1="374.1732" x2="396.8504" y1="617.9528" y2="595.2756"/>
    <line x1="419.5276" x2="442.2047" y1="595.2756" y2="617.9528"/>
    <polyline points="464.8819,595.2756 532.9134,663.3071 487.5591,708.6614 510.2362,731.3386 464.8819,776.6929 510.2362,822.0472 487.5591,844.7244 464.8819,822.0472"/>
    <polyline points="487.5591,822.0472 464.8819,799.3701 442.2047,822.0472 464.8819,844.7244 442.2047,867.4016 464.8819,890.0787"/>
    <line x1="419.5276" x2="396.8504" y1="822.0472" y2="799.3701"/>
    <line x1="419.5276" x2="442.2047" y1="799.3701" y2="776.6929"/>
    <polyline points="442.2047,799.3701 464.8819,776.6929 419.5276,731.3386"/>
    <polyline points="419.5276,754.0157 396.8504,731.3386 419.5276,708.6614 442.2047,731.3386 487.5591,685.9843 464.8819,663.3071 487.5591,640.6299 374.1732,527.2441 419.5276,481.8898 351.4961,413.8583 328.8189,436.5354 306.1417,413.8583"/>
    <polyline points="306.1417,436.5354 328.8189,459.2126 351.4961,436.5354 396.8504,481.8898 374.1732,504.5669 351.4961,481.8898"/>
    <polyline points="374.1732,481.8898 351.4961,459.2126 328.8189,481.8898"/>
    <polyline points="328.8189,504.5669 283.4646,549.9213 306.1417,572.5984 328.8189,549.9213 351.4961,572.5984 328.8189,595.2756"/>
    <polyline points="374.1732,595.2756 396.8504,572.5984 306.1417,481.8898"/>
    <line x1="306.1417" x2="374.1732" y1="459.2126" y2="527.2441"/>
    <line x1="374.1732" x2="396.8504" y1="436.5354" y2="413.8583"/>
    <line x1="419.5276" x2="464.8819" y1="436.5354" y2="391.1811"/>
    <line x1="442.2047" x2="306.1417" y1="391.1811" y2="255.1181"/>
    <polyline points="328.8189,255.1181 351.4961,232.4409 306.1417,187.0866"/>
    <line x1="283.4646" x2="215.4331" y1="187.0866" y2="119.0551"/>
    <line x1="215.4331" x2="238.1102" y1="96.378" y2="119.0551"/>
    <polyline points="238.1102,96.378 215.4331,73.7008 192.7559,96.378"/>
    <polyline points="192.7559,141.7323 215.4331,119.0551 147.4016,51.0236"/>
    <polyline points="124.7244,51.0236 192.7559,119.0551 170.0787,141.7323 238.1102,209.7638"/>
    <line x1="215.4331" x2="192.7559" y1="209.7638" y2="232.4409"/>
    <line x1="192.7559" x2="147.4016" y1="209.7638" y2="255.1181"/>
    <line x1="147.4016" x2="102.0472" y1="277.7953" y2="232.4409"/>
    <line x1="79.3701" x2="147.4016" y1="232.4409" y2="164.4094"/>
    <line x1="170.0787" x2="192.7559" y1="164.4094" y2="187.0866"/>
    <polyline points="192.7559,164.4094 215.4331,141.7323 396.8504,323.1496 442.2047,277.7953 464.8819,300.4724"/>
    <polyline points="464.8819,323.1496 442.2047,300.4724 419.5276,323.1496 442.2047,345.8268"/>
    <polyline points="442.2047,323.1496 464.8819,345.8268 442.2047,368.5039 510.2362,436.5354"/>
    <polyline points="532.9134,527.2441 555.5906,549.9213 510.2362,595.2756 532.9134,617.9528"/>
    <line x1="510.2362" x2="487.5591" y1="640.6299" y2="663.3071"/>
    <line x1="510.2362" x2="487.5591" y1="663.3071" y2="685.9843"/>
    <line x1="464.8819" x2="487.5591" y1="708.6614" y2="731.3386"/>
    <polyline points="510.2362,754.0157 623.622,867.4016 600.9449,890.0787"/>
    <polyline points="623.622,912.7559 646.2992,890.0787 668.9764,912.7559 646.2992,935.4331 737.0079,1026.1417 714.3307,1048.8189 737.0079,1071.4961"/>
    <line x1="714.3307" x2="737.0079" y1="1003.4646" y2="980.7874"/>
    <polyline points="714.3307,958.1102 668.9764,912.7559 691.6535,890.0787 737.0079,935.4331"/>
    <polyline points="691.6535,912.7559 737.0079,958.1102 714.3307,980.7874 668.9764,935.4331"/>
    <line x1="646.2992" x2="623.622" y1="912.7559" y2="935.4331"/>
    <polyline points="600.9449,958.1102 646.2992,1003.4646 623.622,1026.1417 600.9449,1003.4646 623.622,980.7874"/>
    <line x1="646.2992" x2="623.622" y1="1026.1417" y2="1048.8189"/>
    <line x1="600.9449" x2="578.2677" y1="1071.4961" y2="1048.8189"/>
    <polyline points="396.8504,958.1102 351.4961,912.7559 328.8189,935.4331 306.1417,912.7559 328.8189,890.0787 306.1417,867.4016 396.8504,776.6929 374.1732,754.0157 396.8504,731.3386 351.4961,685.9843"/>
    <line x1="238.1102" x2="215.4331" y1="708.6614" y2="685.9843"/>
    <polyline points="238.1102,663.3071 260.7874,685.9843 283.4646,663.3071 260.7874,640.6299 283.4646,617.9528 238.1102,572.5984 260.7874,549.9213 124.7244,413.8583 147.4016,391.1811"/>
    <line x1="170.0787" x2="215.4331" y1="391.1811" y2="345.8268"/>
    <line x1="238.1102" x2="260.7874" y1="345.8268" y2="368.5039"/>
    <line x1="238.1102" x2="260.7874" y1="368.5039" y2="391.1811"/>
    <polyline points="283.4646,391.1811 260.7874,368.5039 328.8189,300.4724 260.7874,232.4409 306.1417,187.0866 283.4646,164.4094 328.8189,119.0551 260.7874,51.0236"/>
    <polyline points="238.1102,51.0236 260.7874,73.7008 238.1102,96.378 283.4646,141.7323 306.1417,119.0551 283.4646,96.378"/>
    <polyline points="283.4646,119.0551 260.7874,96.378 306.1417,51.0236 328.8189,73.7008"/>
    <polyline points="328.8189,51.0236 374.1732,96.378 351.4961,119.0551"/>
    <polyline points="351.4961,96.378 328.8189,119.0551 419.5276,209.7638 442.2047,187.0866 487.5591,232.4409 464.8819,255.1181 487.5591,277.7953"/>
    <line x1="510.2362" x2="555.5906" y1="255.1181" y2="209.7638"/>
    <line x1="578.2677" x2="487.5591" y1="209.7638" y2="119.0551"/>
    <polyline points="464.8819,119.0551 487.5591,96.378 464.8819,73.7008 487.5591,51.0236"/>
    <polyline points="464.8819,51.0236 442.2047,73.7008 464.8819,96.378 442.2047,119.0551 532.9134,209.7638 487.5591,255.1181 510.2362,277.7953 464.8819,323.1496 510.2362,368.5039 487.5591,391.1811 464.8819,368.5039 510.2362,323.1496 442.2047,255.1181 464.8819,232.4409 442.2047,209.7638 419.5276,232.4409 396.8504,209.7638 351.4961,255.1181 396.8504,300.4724"/>
    <polyline points="419.5276,300.4724 374.1732,255.1181 396.8504,232.4409 442.2047,277.7953"/>
    <line x1="419.5276" x2="396.8504" y1="277.7953" y2="255.1181"/>
    <line x1="419.5276" x2="442.2047" y1="255.1181" y2="232.4409"/>
    <polyline points="464.8819,209.7638 487.5591,187.0866 464.8819,164.4094"/>
    <line x1="464.8819" x2="374.1732" y1="187.0866" y2="96.378"/>
    <polyline points="396.8504,96.378 419.5276,73.7008 442.2047,96.378 419.5276,119.0551 374.1732,73.7008 396.8504,51.0236 419.5276,73.7008 442.2047,51.0236"/>
    <polyline points="487.5591,73.7008 510.2362,51.0236 532.9134,73.7008 419.5276,187.0866 374.1732,141.7323"/>
    <polyline points="351.4961,141.7323 374.1732,119.0551 419.5276,164.4094"/>
    <line x1="419.5276" x2="442.2047" y1="141.7323" y2="119.0551"/>
    <line x1="487.5591" x2="510.2362" y1="141.7323" y2="164.4094"/>
    <line x1="532.9134" x2="510.2362" y1="164.4094" y2="187.0866"/>
    <line x1="532.9134" x2="578.2677" y1="187.0866" y2="232.4409"/>
    <polyline points="600.9449,232.4409 646.2992,277.7953 600.9449,323.1496"/>
    <polyline points="600.9449,345.8268 646.2992,391.1811 623.622,413.8583 646.2992,436.5354"/>
    <line x1="623.622" x2="600.9449" y1="436.5354" y2="459.2126"/>
    <polyline points="623.622,459.2126 714.3307,368.5039 691.6535,345.8268 737.0079,300.4724"/>
    <line x1="714.3307" x2="737.0079" y1="300.4724" y2="277.7953"/>
    <polyline points="737.0079,255.1181 714.3307,277.7953 646.2992,209.7638 668.9764,187.0866 646.2992,164.4094 668.9764,141.7323"/>
    <polyline points="668.9764,119.0551 646.2992,141.7323 623.622,119.0551 578.2677,164.4094 623.622,209.7638"/>
    <line x1="623.622" x2="600.9449" y1="187.0866" y2="164.4094"/>
    <line x1="578.2677" x2="555.5906" y1="164.4094" y2="141.7323"/>
    <polyline points="578.2677,141.7323 555.5906,119.0551 532.9134,141.7323"/>
    <polyline points="532.9134,119.0551 555.5906,96.378 532.9134,73.7008 555.5906,51.0236"/>
    <polyline points="578.2677,51.0236 555.5906,73.7008 600.9449,119.0551 623.622,96.378 646.2992,119.0551 668.9764,96.378 646.2992,73.7008 623.622,96.378 600.9449,73.7008"/>
    <polyline points="600.9449,96.378 578.2677,73.7008 600.9449,51.0236 623.622,73.7008"/>
    <line x1="623.622" x2="646.2992" y1="51.0236" y2="73.7008"/>
    <line x1="668.9764" x2="691.6535" y1="73.7008" y2="51.0236"/>
    <line x1="691.6535" x2="714.3307" y1="73.7008" y2="51.0236"/>
    <line x1="737.0079" x2="691.6535" y1="51.0236" y2="96.378"/>
    <polyline points="691.6535,119.0551 714.3307,96.378 737.0079,119.0551 691.6535,164.4094 737.0079,209.7638"/>
    <line x1="714.3307" x2="691.6535" y1="232.4409" y2="209.7638"/>
    <polyline points="691.6535,187.0866 737.0079,232.4409 714.3307,255.1181 668.9764,209.7638 691.6535,187.0866 668.9764,164.4094 691.6535,141.7323 668.9764,119.0551 691.6535,96.378 646.2992,51.0236"/>
    <line x1="714.3307" x2="737.0079" y1="73.7008" y2="96.378"/>
    <line x1="714.3307" x2="691.6535" y1="119.0551" y2="141.7323"/>
    <polyline points="714.3307,141.7323 737.0079,164.4094 714.3307,187.0866"/>
    <polyline points="646.2992,232.4409 668.9764,255.1181 646.2992,277.7953"/>
    <polyline points="668.9764,277.7953 646.2992,300.4724 668.9764,323.1496 646.2992,345.8268"/>
    <line x1="668.9764" x2="646.2992" y1="345.8268" y2="368.5039"/>
    <line x1="623.622" x2="600.9449" y1="368.5039" y2="391.1811"/>
    <polyline points="623.622,345.8268 646.2992,323.1496 600.9449,277.7953"/>
    <polyline points="600.9449,255.1181 578.2677,277.7953 600.9449,300.4724"/>
    <line x1="578.2677" x2="532.9134" y1="300.4724" y2="255.1181"/>
    <line x1="510.2362" x2="487.5591" y1="232.4409" y2="209.7638"/>
    <line x1="487.5591" x2="510.2362" y1="187.0866" y2="209.7638"/>
    <line x1="600.9449" x2="623.622" y1="209.7638" y2="232.4409"/>
    <polyline points="646.2992,255.1181 623.622,232.4409 646.2992,209.7638 623.622,187.0866 646.2992,164.4094 623.622,141.7323"/>
    <line x1="623.622" x2="555.5906" y1="164.4094" y2="96.378"/>
    <polyline points="532.9134,96.378 510.2362,119.0551 600.9449,209.7638 578.2677,232.4409 623.622,277.7953"/>
    <polyline points="668.9764,255.1181 714.3307,300.4724 668.9764,345.8268 691.6535,368.5039 668.9764,391.1811"/>
    <polyline points="714.3307,391.1811 737.0079,413.8583 714.3307,436.5354 691.6535,413.8583 737.0079,368.5039 714.3307,345.8268 737.0079,323.1496"/>
    <line x1="691.6535" x2="668.9764" y1="300.4724" y2="323.1496"/>
    <line x1="668.9764" x2="691.6535" y1="300.4724" y2="277.7953"/>
    <line x1="691.6535" x2="668.9764" y1="481.8898" y2="504.5669"/>
    <polyline points="646.2992,481.8898 714.3307,549.9213 691.6535,572.5984 668.9764,549.9213 646.2992,572.5984 668.9764,595.2756 646.2992,617.9528 668.9764,640.6299 691.6535,617.9528"/>
    <polyline points="668.9764,617.9528 714.3307,572.5984 737.0079,595.2756 668.9764,663.3071"/>
    <line x1="646.2992" x2="623.622" y1="663.3071" y2="685.9843"/>
    <line x1="623.622" x2="600.9449" y1="708.6614" y2="731.3386"/>
    <polyline points="600.9449,708.6614 578.2677,685.9843 600.9449,663.3071 623.622,685.9843 578.2677,731.3386 532.9134,685.9843 555.5906,663.3071 578.2677,685.9843"/>
    <line x1="578.2677" x2="555.5906" y1="708.6614" y2="685.9843"/>
    <line x1="532.9134" x2="578.2677" y1="663.3071" y2="617.9528"/>
    <polyline points="600.9449,640.6299 578.2677,663.3071 555.5906,640.6299"/>
    <polyline points="555.5906,595.2756 578.2677,572.5984 555.5906,549.9213 578.2677,527.2441"/>
    <polyline points="668.9764,549.9213 646.2992,527.2441 623.622,549.9213 646.2992,572.5984 623.622,595.2756 646.2992,617.9528"/>
    <polyline points="668.9764,572.5984 737.0079,640.6299 714.3307,663.3071 737.0079,685.9843 714.3307,708.6614"/>
    <polyline points="737.0079,708.6614 714.3307,731.3386 737.0079,754.0157"/>
    <polyline points="737.0079,776.6929 714.3307,754.0157 691.6535,776.6929 646.2992,731.3386"/>
    <polyline points="646.2992,754.0157 668.9764,776.6929 600.9449,844.7244"/>
    <polyline points="578.2677,799.3701 600.9449,822.0472 623.622,799.3701"/>
    <polyline points="646.2992,799.3701 623.622,776.6929 600.9449,799.3701 578.2677,776.6929 555.5906,799.3701"/>
    <line x1="555.5906" x2="532.9134" y1="754.0157" y2="731.3386"/>
    <line x1="510.2362" x2="487.5591" y1="776.6929" y2="799.3701"/>
    <polyline points="646.2992,708.6614 691.6535,754.0157 714.3307,731.3386 691.6535,708.6614 714.3307,685.9843 691.6535,663.3071 714.3307,640.6299"/>
    <polyline points="691.6535,663.3071 668.9764,685.9843 691.6535,708.6614"/>
    <line x1="691.6535" x2="646.2992" y1="731.3386" y2="685.9843"/>
    <line x1="691.6535" x2="737.0079" y1="527.2441" y2="481.8898"/>
    <line x1="442.2047" x2="419.5276" y1="368.5039" y2="345.8268"/>
    <line x1="419.5276" x2="396.8504" y1="323.1496" y2="345.8268"/>
    <line x1="396.8504" x2="374.1732" y1="368.5039" y2="391.1811"/>
    <line x1="351.4961" x2="260.7874" y1="368.5039" y2="277.7953"/>
    <line x1="238.1102" x2="215.4331" y1="277.7953" y2="255.1181"/>
    <polyline points="238.1102,232.4409 260.7874,209.7638 215.4331,164.4094"/>
    <line x1="238.1102" x2="260.7874" y1="141.7323" y2="119.0551"/>
    <line x1="260.7874" x2="283.4646" y1="141.7323" y2="164.4094"/>
    <polyline points="328.8189,164.4094 351.4961,187.0866 283.4646,255.1181"/>
    <line x1="238.1102" x2="260.7874" y1="323.1496" y2="345.8268"/>
    <polyline points="306.1417,391.1811 328.8189,413.8583 351.4961,391.1811 328.8189,368.5039"/>
    <polyline points="328.8189,345.8268 306.1417,368.5039 328.8189,391.1811"/>
    <line x1="260.7874" x2="238.1102" y1="413.8583" y2="436.5354"/>
    <line x1="215.4331" x2="192.7559" y1="436.5354" y2="413.8583"/>
    <line x1="215.4331" x2="260.7874" y1="413.8583" y2="459.2126"/>
    <line x1="192.7559" x2="170.0787" y1="436.5354" y2="459.2126"/>
    <polyline points="170.0787,436.5354 238.1102,368.5039 215.4331,345.8268 238.1102,323.1496 192.7559,277.7953 124.7244,345.8268"/>
    <polyline points="79.3701,345.8268 102.0472,368.5039 79.3701,391.1811 56.6929,368.5039 79.3701,345.8268 56.6929,323.1496"/>
    <polyline points="79.3701,277.7953 56.6929,300.4724 124.7244,368.5039 79.3701,413.8583 147.4016,481.8898 124.7244,504.5669 147.4016,527.2441"/>
    <line x1="170.0787" x2="147.4016" y1="527.2441" y2="549.9213"/>
    <line x1="102.0472" x2="79.3701" y1="504.5669" y2="527.2441"/>
    <line x1="147.4016" x2="192.7559" y1="436.5354" y2="391.1811"/>
    <polyline points="147.4016,413.8583 170.0787,391.1811 79.3701,300.4724 102.0472,277.7953 79.3701,255.1181"/>
    <line x1="102.0472" x2="124.7244" y1="277.7953" y2="255.1181"/>
    <polyline points="170.0787,51.0236 192.7559,73.7008 215.4331,51.0236 238.1102,73.7008"/>
    <polyline points="306.1417,73.7008 328.8189,96.378 374.1732,51.0236"/>
    <line x1="487.5591" x2="510.2362" y1="96.378" y2="73.7008"/>
    <polyline points="396.8504,209.7638 328.8189,141.7323 306.1417,164.4094 328.8189,187.0866"/>
    <line x1="351.4961" x2="374.1732" y1="187.0866" y2="209.7638"/>
    <line x1="351.4961" x2="374.1732" y1="209.7638" y2="232.4409"/>
    <line x1="260.7874" x2="238.1102" y1="595.2756" y2="617.9528"/>
    <polyline points="124.7244,731.3386 102.0472,708.6614 79.3701,731.3386 124.7244,776.6929 56.6929,844.7244 79.3701,867.4016 102.0472,844.7244 147.4016,890.0787 170.0787,912.7559 147.4016,935.4331 170.0787,958.1102"/>
    <polyline points="170.0787,935.4331 192.7559,958.1102 124.7244,1026.1417 170.0787,1071.4961"/>
    <polyline points="147.4016,1071.4961 102.0472,1026.1417 147.4016,980.7874 124.7244,958.1102"/>
    <polyline points="192.7559,958.1102 215.4331,980.7874 192.7559,1003.4646"/>
    <polyline points="192.7559,1048.8189 215.4331,1026.1417 56.6929,867.4016"/>
    <line x1="147.4016" x2="170.0787" y1="1026.1417" y2="1048.8189"/>
    <line x1="238.1102" x2="260.7874" y1="912.7559" y2="890.0787"/>
  </g>
</svg>
